<?xml version="1.0" encoding="utf-8"?><svg xmlns="http://www.w3.org/2000/svg" xmlns:xlink="http://www.w3.org/1999/xlink"><symbol viewBox="0 0 168.93 78.27" id="logo" xmlns="http://www.w3.org/2000/svg"><defs><style/></defs><g id="aLayer_2" data-name="Layer 2"><g id="aArtwork"><circle class="acls-1" cx="59.75" cy="24.46" r="2.87"/><circle class="acls-1" cx="109.8" cy="53.11" r="2.87"/><path class="acls-1" d="M165.73 0c-19 0-34.69 15.43-40.64 22.16C119.13 15.42 103.43 0 84.46 0 60.71 0 42.07 24.2 41.28 25.23l-1.47 1.94 1.47 1.94c.78 1 19.42 25.22 43.18 25.22 9.24 0 19.09-3.81 28.64-11a81.57 81.57 0 0 1 7.83 7.84c-4.77 5.49-19.53 20.75-36.48 20.75-20.56 0-37.91-22.46-38.08-22.69C45.59 48.13 26.95 24 3.2 24H0v54.27h3.2c19 0 34.68-15.42 40.63-22.16 6 6.74 21.66 22.16 40.63 22.16 23.75 0 42.4-24.19 43.18-25.22l1.47-1.94-1.47-1.94c-.78-1-19.43-25.22-43.18-25.22-9.24 0-19.09 3.81-28.64 11A81.58 81.58 0 0 1 48 27.16c4.74-5.49 19.48-20.74 36.46-20.74 20.56 0 37.91 22.46 38.08 22.69.86 1.13 19.47 25.21 43.17 25.21h3.2V0zM6.4 71.69V30.55C22 32.27 35.22 46 39.68 51.12 35.21 56.26 22 70 6.4 71.69zm78.06-41.32c8.76 0 16.94 4.08 23.45 8.78-6.17 4.43-14.49 8.77-23.45 8.77-8.76 0-16.94-4.08-23.45-8.78 6.18-4.44 14.49-8.77 23.45-8.77zm78.06 17.36c-15.58-1.73-28.81-15.44-33.27-20.58C133.7 22 146.91 8.3 162.53 6.58z"/></g></g></symbol></svg>