<?xml version="1.0" encoding="utf-8"?><svg xmlns="http://www.w3.org/2000/svg" xmlns:xlink="http://www.w3.org/1999/xlink"><symbol viewBox="0 0 168.93 78.27" id="logo" xmlns="http://www.w3.org/2000/svg"><defs><style/></defs><g id="aLayer_2" data-name="Layer 2"><g id="aArtwork"><circle class="acls-1" cx="59.75" cy="24.46" r="2.87"/><circle class="acls-1" cx="109.8" cy="53.11" r="2.87"/><path class="acls-1" d="M165.73 0c-19 0-34.69 15.43-40.64 22.16C119.13 15.42 103.43 0 84.46 0 60.71 0 42.07 24.2 41.28 25.23l-1.47 1.94 1.47 1.94c.78 1 19.42 25.22 43.18 25.22 9.24 0 19.09-3.81 28.64-11a81.57 81.57 0 0 1 7.83 7.84c-4.77 5.49-19.53 20.75-36.48 20.75-20.56 0-37.91-22.46-38.08-22.69C45.59 48.13 26.95 24 3.2 24H0v54.27h3.2c19 0 34.68-15.42 40.63-22.16 6 6.74 21.66 22.16 40.63 22.16 23.75 0 42.4-24.19 43.18-25.22l1.47-1.94-1.47-1.94c-.78-1-19.43-25.22-43.18-25.22-9.24 0-19.09 3.81-28.64 11A81.58 81.58 0 0 1 48 27.16c4.74-5.49 19.48-20.74 36.46-20.74 20.56 0 37.91 22.46 38.08 22.69.86 1.13 19.47 25.21 43.17 25.21h3.2V0zM6.4 71.69V30.55C22 32.27 35.22 46 39.68 51.12 35.21 56.26 22 70 6.4 71.69zm78.06-41.32c8.76 0 16.94 4.08 23.45 8.78-6.17 4.43-14.49 8.77-23.45 8.77-8.76 0-16.94-4.08-23.45-8.78 6.18-4.44 14.49-8.77 23.45-8.77zm78.06 17.36c-15.58-1.73-28.81-15.44-33.27-20.58C133.7 22 146.91 8.3 162.53 6.58z"/></g></g></symbol><symbol viewBox="0 0 399.99 260.77" id="logobold" xmlns="http://www.w3.org/2000/svg"><circle fill="#26498D" cx="141.47" cy="95.63" r="6.8"/><circle fill="#26498D" cx="259.99" cy="163.47" r="6.8"/><path fill="#26498D" d="M0 0v260.77h400V0zm384.83 15.16V38.1c-41.51 3.75-75.35 37.07-88.64 52.1-14.11-16-51.28-52.45-96.19-52.45-56.25 0-100.4 57.25-102.25 59.71L94.27 102l3.48 4.58c1.85 2.44 46 59.71 102.25 59.71 21.87 0 45.21-9 67.82-26.14a193.17 193.17 0 0 1 18.56 18.57c-11.26 13-46.15 49.12-86.37 49.12-48.68 0-89.77-53.18-90.18-53.72-1.8-2.37-42.1-54.58-94.66-59.32V15.16zm0 38.14v97.42C347.94 146.64 316.6 114.17 306 102c10.58-12.17 41.86-44.63 78.83-48.7zm-240.36 77.09c14.61-10.5 34.31-20.76 55.53-20.76 20.74 0 40.1 9.66 55.53 20.79-14.61 10.5-34.31 20.76-55.53 20.76-20.75 0-40.1-9.67-55.53-20.79zm-50.52 28.37c-10.56 12.18-41.9 44.63-78.79 48.7v-97.41c36.84 4.08 68.22 36.53 78.79 48.71zm-78.79 86.85v-22.94c41.5-3.75 75.33-37 88.63-52.08C117.89 186.54 155.07 223 200 223c56.25 0 100.39-57.27 102.25-59.71l3.48-4.58-3.48-4.58c-1.85-2.44-46-59.71-102.25-59.71-21.87 0-45.21 9-67.82 26.14A193.16 193.16 0 0 1 113.62 102c11.26-13 46.15-49.09 86.38-49.09 48.68 0 89.77 53.19 90.18 53.72 1.94 2.55 42.18 54.56 94.64 59.3v79.69z"/></symbol><symbol viewBox="0 0 414.84 111.47" class="ccircle-2" id="outlineone" xmlns="http://www.w3.org/2000/svg"><path fill="none" stroke="#26498d" stroke-miterlimit="10" stroke-width="25" class="chover-path" d="M180.35 13.55c34.13-1.2 68.69-2.81 102.4 4.3 16.68 3.52 34 8 42.07 24.47 6.87 14.12.21 30.15-13.29 37-14.74 7.47-31.66 8.88-47.81 10.7-37.22 4.19-74.64 6.71-112.06 8.23-26.8 1.09-53.5 1-80.27-.54q-13.88-.54-27.64-2.36a52.37 52.37 0 0 1-16.92-3.74 26.59 26.59 0 0 1-13.5-18.42c-1.42-6.8-1.45-11.7 3.62-16.94 10.74-11.1 28.44-15.61 42.88-20.07a334.43 334.43 0 0 1 58.34-10q39.16-5.09 78.66-6.47c49.34-2.31 98.76-1.35 148.06 1.27 19.22 1 38.35 2.18 57.45 4.55"/></symbol></svg>